# xmcd CD database file
#
# Track frame offsets:
#	150
#	12040
#	28725
#	50452
#	73902
#	87507
#	114487
#	135112
#	146995
#	159017
#	186572
#	207955
#	217805
#	244585
#
# Disc length: 3621 seconds
#
# Revision: 0
# Processed by: cddbd v1.5PL3 Copyright (c) Steve Scherf et al.
# Submitted via: CDex 1.50
#
DISCID=c10e230e
DTITLE=Unnerhaus Jazzband - UJB 1993
DYEAR=1993
DGENRE=Jazz
TTITLE0=Original Dixieland One Step
TTITLE1=Saturday Night Funktion
TTITLE2=Hello Dolly
TTITLE3=Perdido Street Blues
TTITLE4=Shine
TTITLE5=C´est Si Bon
TTITLE6=Big Bill
TTITLE7=Wild Cat Blues
TTITLE8=Dill Pickles Ragtime
TTITLE9=Basin Street Blues
TTITLE10=St. Louis Blues
TTITLE11=High Society
TTITLE12=I can´t give you anything but love
TTITLE13=Spanish Castles
EXTD=YEAR: 1993
EXTT0=
EXTT1=
EXTT2=
EXTT3=
EXTT4=
EXTT5=
EXTT6=
EXTT7=
EXTT8=
EXTT9=
EXTT10=
EXTT11=
EXTT12=
EXTT13=
PLAYORDER=
